<svg xmlns="http://www.w3.org/2000/svg" viewBox="0 0 135.58 69.9"><defs><style>.cls-1{fill:#003383;}.cls-1,.cls-2{fill-rule:evenodd;}.cls-2{fill:#f0ce00;}</style></defs><title>logo-fapg</title><g id="Camada_2" data-name="Camada 2"><g id="Camada_1-2" data-name="Camada 1"><path class="cls-1" d="M5.19,34.52c3.89,1.32,28.44,3,31.74,2.61L39,42.84C34,43.55,6.34,40.07,5.19,34.52Z"/><path class="cls-1" d="M27.48,69.05V66.13h1.77v.5H28v.68h1.08v.5H28v1.24Zm2.19-2.92h.52v1.58a4.06,4.06,0,0,0,0,.48.45.45,0,0,0,.17.3.51.51,0,0,0,.34.1.5.5,0,0,0,.29-.07.37.37,0,0,0,.16-.21,2.32,2.32,0,0,0,0-.57V66.13h.52v1.53a3.46,3.46,0,0,1-.07.85.67.67,0,0,1-.3.42,1.09,1.09,0,0,1-.63.17A1.23,1.23,0,0,1,30.1,69a.77.77,0,0,1-.33-.38,2.85,2.85,0,0,1-.1-.89V66.13Zm2.62,2.92V66.13h.5l1.06,2v-2h.48v2.92h-.52l-1-1.9v1.9Zm2.59-2.92h.95a1.46,1.46,0,0,1,.54.08.81.81,0,0,1,.34.25,1.19,1.19,0,0,1,.25.46,2.75,2.75,0,0,1,.08.7,2.19,2.19,0,0,1-.09.66,1.4,1.4,0,0,1-.23.44.85.85,0,0,1-.35.24,1.23,1.23,0,0,1-.51.09h-1V66.13Zm.52.5v1.92h.39a1,1,0,0,0,.36,0,.43.43,0,0,0,.19-.13.67.67,0,0,0,.12-.28,3.21,3.21,0,0,0,0-1,.84.84,0,0,0-.15-.3.48.48,0,0,0-.25-.14,2.2,2.2,0,0,0-.42,0Zm4.41,2.42h-.57L39,68.38H38l-.21.67h-.56l1-2.92h.55l1,2.92Zm-1-1.16-.35-1.08-.35,1.08Zm2.89.08.5.19a1.25,1.25,0,0,1-.39.71,1.1,1.1,0,0,1-1.49-.13A1.66,1.66,0,0,1,40,67.62a1.74,1.74,0,0,1,.36-1.17,1,1,0,0,1,.85-.37,1,1,0,0,1,.72.28,1.19,1.19,0,0,1,.31.58l-.52.13a.7.7,0,0,0-.19-.36.59.59,0,0,0-.82.11,1.23,1.23,0,0,0-.18.76,1.3,1.3,0,0,0,.18.78.54.54,0,0,0,.46.23.52.52,0,0,0,.35-.14.9.9,0,0,0,.22-.48Zm-1.08,1.9a1.4,1.4,0,0,0,.34,0,.76.76,0,0,0,.46-.12.38.38,0,0,0,.16-.31.34.34,0,0,0-.12-.27.49.49,0,0,0-.33-.11.73.73,0,0,0-.3.06l0,.19a.93.93,0,0,1,.23,0,.25.25,0,0,1,.16,0,.14.14,0,0,1,.06.12.16.16,0,0,1-.07.14.42.42,0,0,1-.22,0l-.33,0v.23ZM45,69.05h-.57l-.23-.67h-1l-.21.67h-.55l1-2.92H44l1,2.92Zm-1-1.16-.36-1.08-.35,1.08Zm-.74-2H43.1v-.06a.5.5,0,0,1,.09-.33.27.27,0,0,1,.23-.11h.12l.17.08a.62.62,0,0,0,.23.08c.09,0,.13-.06.15-.18h.23a.86.86,0,0,1-.09.39.27.27,0,0,1-.23.11h-.11l-.19-.07a.61.61,0,0,0-.25-.08.1.1,0,0,0-.09,0,.28.28,0,0,0,0,.13Zm1.87,1.7a1.94,1.94,0,0,1,.16-.86,1.14,1.14,0,0,1,1.09-.67,1.14,1.14,0,0,1,.9.39,2,2,0,0,1,0,2.26,1.24,1.24,0,0,1-1.76,0,1.62,1.62,0,0,1-.37-1.13Zm.53,0a1.16,1.16,0,0,0,.21.75.63.63,0,0,0,.51.25.61.61,0,0,0,.51-.25,1.15,1.15,0,0,0,.2-.76,1.18,1.18,0,0,0-.19-.75.64.64,0,0,0-.52-.24.66.66,0,0,0-.52.24,1.21,1.21,0,0,0-.2.76Zm3.88-1.46h.95a1.46,1.46,0,0,1,.54.08.81.81,0,0,1,.34.25,1.19,1.19,0,0,1,.25.46,2.75,2.75,0,0,1,.08.7,2.19,2.19,0,0,1-.09.66,1.4,1.4,0,0,1-.23.44.85.85,0,0,1-.35.24,1.23,1.23,0,0,1-.51.09h-1V66.13Zm.52.5v1.92h.39a1,1,0,0,0,.36,0,.43.43,0,0,0,.19-.13.67.67,0,0,0,.12-.28,3.21,3.21,0,0,0,0-1,.84.84,0,0,0-.15-.3.48.48,0,0,0-.25-.14,2.26,2.26,0,0,0-.43,0Zm2.09,2.42V66.13h1.91v.5H52.73v.64H54v.49H52.73v.79h1.44v.5Zm6.1,0h-.57l-.22-.67h-1l-.22.67h-.55l1-2.92h.56l1,2.92Zm-1-1.16L57,66.81l-.35,1.08Zm1.23,1.16V66.13h.84a3.37,3.37,0,0,1,.61,0,.73.73,0,0,1,.38.29,1,1,0,0,1,.15.57,1,1,0,0,1-.13.53.71.71,0,0,1-.32.3,1.74,1.74,0,0,1-.67.09H59.1v1.1Zm.52-2.42v.82h.29a1.17,1.17,0,0,0,.39,0,.31.31,0,0,0,.17-.13A.4.4,0,0,0,60,67a.41.41,0,0,0-.07-.25.31.31,0,0,0-.17-.13,1.8,1.8,0,0,0-.42,0Zm1.78,1a1.93,1.93,0,0,1,.17-.86,1.14,1.14,0,0,1,.44-.5,1.18,1.18,0,0,1,.65-.17,1.14,1.14,0,0,1,.9.39,2,2,0,0,1,0,2.26,1.26,1.26,0,0,1-1.77,0,1.67,1.67,0,0,1-.37-1.13Zm.54,0a1.16,1.16,0,0,0,.21.75.61.61,0,0,0,.51.25.63.63,0,0,0,.51-.25,1.21,1.21,0,0,0,.2-.76,1.18,1.18,0,0,0-.2-.75.63.63,0,0,0-.51-.24.64.64,0,0,0-.52.24,1.21,1.21,0,0,0-.2.76Zm2.36,1.46V66.13h.52v2.92Zm.91-1.44a1.93,1.93,0,0,1,.17-.86,1.19,1.19,0,0,1,.43-.5,1.23,1.23,0,0,1,.65-.17,1.18,1.18,0,0,1,.91.39,2,2,0,0,1,0,2.26,1.26,1.26,0,0,1-1.77,0,1.67,1.67,0,0,1-.37-1.13Zm.54,0a1.16,1.16,0,0,0,.21.75.61.61,0,0,0,.51.25.63.63,0,0,0,.51-.25,1.21,1.21,0,0,0,.2-.76,1.18,1.18,0,0,0-.2-.75.63.63,0,0,0-.51-.24.64.64,0,0,0-.52.24,1.21,1.21,0,0,0-.2.76Zm6.2,1.46h-.56l-.23-.67h-1l-.21.67h-.56l1-2.92h.55l1,2.92Zm-1-1.16-.35-1.08-.35,1.08Zm-.06-2H70.1l-.49-.6h.56l.24.6Zm2.8,3.11V66.13h.84a3.37,3.37,0,0,1,.61,0,.77.77,0,0,1,.38.29,1,1,0,0,1,.15.57,1,1,0,0,1-.13.53.71.71,0,0,1-.32.3,1.74,1.74,0,0,1-.67.09h-.34v1.1Zm.52-2.42v.82H74a1.17,1.17,0,0,0,.39,0,.31.31,0,0,0,.17-.13.4.4,0,0,0,.07-.24.41.41,0,0,0-.07-.25.31.31,0,0,0-.17-.13,1.91,1.91,0,0,0-.43,0Zm1.89,2.42V66.13h1.91v.5H76.14v.64h1.3v.49h-1.3v.79h1.44v.5Zm2.27-1L78.4,68c.06.37.24.56.56.56a.58.58,0,0,0,.37-.11.37.37,0,0,0,.14-.29.34.34,0,0,0,0-.17.4.4,0,0,0-.14-.11l-.47-.15a1.68,1.68,0,0,1-.49-.2.85.85,0,0,1-.24-.29.75.75,0,0,1-.1-.38.8.8,0,0,1,.12-.43.74.74,0,0,1,.32-.29,1.29,1.29,0,0,1,.51-.1,1,1,0,0,1,.71.23.88.88,0,0,1,.27.66l-.52,0a.41.41,0,0,0-.47-.42.56.56,0,0,0-.32.08.23.23,0,0,0,0,.4,1.17,1.17,0,0,0,.47.18,2,2,0,0,1,.57.23.79.79,0,0,1,.27.3,1,1,0,0,1,.09.44.92.92,0,0,1-.25.64,1.09,1.09,0,0,1-.79.26,1,1,0,0,1-1.06-1Zm4.61.58a1.76,1.76,0,0,0,.42.24l-.19.42a1.2,1.2,0,0,1-.23-.11L82.15,69a1.34,1.34,0,0,1-.58.13,1.17,1.17,0,0,1-.91-.39,1.68,1.68,0,0,1-.34-1.12,1.63,1.63,0,0,1,.35-1.12,1.25,1.25,0,0,1,1.81,0,1.63,1.63,0,0,1,.34,1.12,2.18,2.18,0,0,1-.07.61,1.83,1.83,0,0,1-.25.48Zm-.42-.34a1.16,1.16,0,0,0,.2-.75,1.17,1.17,0,0,0-.2-.76.66.66,0,0,0-1,0,1.17,1.17,0,0,0-.2.76,1.2,1.2,0,0,0,.2.77.63.63,0,0,0,.5.25.78.78,0,0,0,.21,0,1.58,1.58,0,0,0-.32-.19l.14-.33a1.44,1.44,0,0,1,.49.29Zm1.15-2.21h.52v1.58a2.59,2.59,0,0,0,0,.48.44.44,0,0,0,.16.3.53.53,0,0,0,.34.1.56.56,0,0,0,.3-.07.41.41,0,0,0,.15-.21,2.32,2.32,0,0,0,0-.57V66.13h.53v1.53a4,4,0,0,1-.07.85.72.72,0,0,1-.31.42,1,1,0,0,1-.62.17,1.23,1.23,0,0,1-.63-.14.77.77,0,0,1-.33-.38,2.57,2.57,0,0,1-.1-.89V66.13Zm2.59,2.92V66.13h.52v2.92Zm.89-1,.5-.06c.06.37.25.56.57.56a.6.6,0,0,0,.37-.11.36.36,0,0,0,.13-.29.33.33,0,0,0,0-.17.45.45,0,0,0-.15-.11,3.78,3.78,0,0,0-.47-.15,1.6,1.6,0,0,1-.48-.2.78.78,0,0,1-.25-.29.85.85,0,0,1-.09-.38.8.8,0,0,1,.12-.43.65.65,0,0,1,.32-.29,1.29,1.29,0,0,1,.51-.1,1,1,0,0,1,.71.23.88.88,0,0,1,.27.66l-.52,0a.49.49,0,0,0-.15-.33.51.51,0,0,0-.32-.09.62.62,0,0,0-.33.08.26.26,0,0,0-.11.2.23.23,0,0,0,.1.2,1.32,1.32,0,0,0,.48.18,1.81,1.81,0,0,1,.56.23.66.66,0,0,1,.27.3,1,1,0,0,1,.09.44.87.87,0,0,1-.25.64,1.07,1.07,0,0,1-.79.26,1,1,0,0,1-1.05-1Zm4.86,1H91l-.22-.67h-1l-.22.67H89l1-2.92h.56l1,2.92Zm-1-1.16-.36-1.08-.35,1.08Zm2.6-1.76h1a1.52,1.52,0,0,1,.55.08,1,1,0,0,1,.34.25,1.33,1.33,0,0,1,.24.46,2.33,2.33,0,0,1,.09.7,2.19,2.19,0,0,1-.09.66,1.4,1.4,0,0,1-.24.44.81.81,0,0,1-.34.24,1.31,1.31,0,0,1-.52.09h-1V66.13Zm.52.5v1.92h.39a1.14,1.14,0,0,0,.37,0,.46.46,0,0,0,.18-.13.67.67,0,0,0,.12-.28,2.2,2.2,0,0,0,0-.5,2.17,2.17,0,0,0,0-.51.61.61,0,0,0-.15-.3.48.48,0,0,0-.25-.14,2.08,2.08,0,0,0-.42,0Zm2.09,2.42V66.13h1.92v.5h-1.4v.64h1.3v.49h-1.3v.79h1.44v.5Zm3.91,0V66.13h.83a3.52,3.52,0,0,1,.62,0,.74.74,0,0,1,.37.29,1,1,0,0,1,.15.57,1,1,0,0,1-.13.53.71.71,0,0,1-.32.3,1.72,1.72,0,0,1-.66.09h-.34v1.1Zm.52-2.42v.82h.28a1.2,1.2,0,0,0,.4,0,.36.36,0,0,0,.17-.13.48.48,0,0,0,.06-.24.49.49,0,0,0-.06-.25.41.41,0,0,0-.17-.13,1.91,1.91,0,0,0-.43,0Zm1.78,1a1.94,1.94,0,0,1,.16-.86,1.14,1.14,0,0,1,.44-.5,1.21,1.21,0,0,1,.65-.17,1.14,1.14,0,0,1,.9.39,1.67,1.67,0,0,1,.35,1.12,1.61,1.61,0,0,1-.37,1.14,1.24,1.24,0,0,1-1.76,0,1.62,1.62,0,0,1-.37-1.13Zm.53,0a1.16,1.16,0,0,0,.21.75.63.63,0,0,0,.51.25.61.61,0,0,0,.51-.25,1.15,1.15,0,0,0,.2-.76,1.18,1.18,0,0,0-.19-.75.68.68,0,0,0-1,0,1.21,1.21,0,0,0-.2.76Zm.45-1.65.24-.6h.56l-.49.6Zm1.8,2.16.5-.06c.06.37.25.56.57.56a.6.6,0,0,0,.37-.11.36.36,0,0,0,.13-.29.33.33,0,0,0,0-.17.37.37,0,0,0-.15-.11,4,4,0,0,0-.46-.15,1.57,1.57,0,0,1-.49-.2.78.78,0,0,1-.25-.29.85.85,0,0,1-.09-.38.8.8,0,0,1,.12-.43.69.69,0,0,1,.32-.29,1.29,1.29,0,0,1,.51-.1,1,1,0,0,1,.71.23.88.88,0,0,1,.27.66l-.52,0a.49.49,0,0,0-.15-.33.51.51,0,0,0-.32-.09.62.62,0,0,0-.33.08.26.26,0,0,0-.11.2.23.23,0,0,0,.1.2,1.32,1.32,0,0,0,.48.18,1.81,1.81,0,0,1,.56.23.66.66,0,0,1,.27.3,1,1,0,0,1,.09.44.87.87,0,0,1-.25.64,1.07,1.07,0,0,1-.79.26,1,1,0,0,1-1-1Zm2.38.17v-.56h1v.56Zm2.55-.3v-.49h1.13v1.16a1.44,1.44,0,0,1-.48.32,1.6,1.6,0,0,1-.63.14,1.24,1.24,0,0,1-.67-.18,1.2,1.2,0,0,1-.47-.52,1.86,1.86,0,0,1-.17-.81,1.76,1.76,0,0,1,.18-.83,1.17,1.17,0,0,1,.44-.51,1.3,1.3,0,0,1,.66-.17,1.24,1.24,0,0,1,.75.22,1,1,0,0,1,.35.64l-.51.11a.61.61,0,0,0-.22-.35.62.62,0,0,0-.37-.11.67.67,0,0,0-.53.23,1.11,1.11,0,0,0-.21.74,1.25,1.25,0,0,0,.22.8.65.65,0,0,0,.52.23,1,1,0,0,0,.32-.06,1.12,1.12,0,0,0,.29-.19V68Zm1.61,1.08V66.13h1.1a1.68,1.68,0,0,1,.6.08.58.58,0,0,1,.29.27.89.89,0,0,1,.12.47.76.76,0,0,1-.68.81,1.68,1.68,0,0,1,.28.24,4.4,4.4,0,0,1,.3.48l.31.57h-.62l-.38-.64a4.67,4.67,0,0,0-.28-.43.4.4,0,0,0-.15-.12.84.84,0,0,0-.26,0h-.11v1.22Zm.52-1.69h.39a3.68,3.68,0,0,0,.45,0,.29.29,0,0,0,.15-.12.41.41,0,0,0,.06-.23.39.39,0,0,0-.06-.23.31.31,0,0,0-.16-.11,1.86,1.86,0,0,0-.42,0h-.41v.73Zm4.41,1.69h-.57l-.23-.67h-1l-.21.67h-.55l1-2.92h.55l1,2.92Zm-1-1.16L115,66.81l-.35,1.08Zm1.23-1.76h1a1.56,1.56,0,0,1,.55.08.85.85,0,0,1,.33.25,1.19,1.19,0,0,1,.25.46,2.36,2.36,0,0,1,.08.7,2.19,2.19,0,0,1-.09.66,1.4,1.4,0,0,1-.23.44.88.88,0,0,1-.34.24,1.31,1.31,0,0,1-.52.09h-1V66.13Zm.52.5v1.92h.39a1,1,0,0,0,.36,0,.43.43,0,0,0,.19-.13.67.67,0,0,0,.12-.28,2.2,2.2,0,0,0,.05-.5,2.17,2.17,0,0,0-.05-.51.84.84,0,0,0-.15-.3.48.48,0,0,0-.25-.14,2.14,2.14,0,0,0-.42,0Zm2.08-.5h.52v1.58a4.06,4.06,0,0,0,0,.48.49.49,0,0,0,.16.3.54.54,0,0,0,.35.1.52.52,0,0,0,.29-.07.37.37,0,0,0,.16-.21,3,3,0,0,0,0-.57V66.13h.52v1.53a3.46,3.46,0,0,1-.07.85.67.67,0,0,1-.3.42,1.09,1.09,0,0,1-.63.17,1.23,1.23,0,0,1-.63-.14.77.77,0,0,1-.33-.38,2.57,2.57,0,0,1-.1-.89V66.13Zm4.93,2.92h-.56l-.23-.67h-1l-.21.67h-.55l1-2.92h.55l1,2.92Zm-1-1.16-.36-1.08-.35,1.08Zm1.24,1.16V66.13h.5l1.06,2v-2h.48v2.92h-.52l-1-1.9v1.9ZM127,66.13h1a1.56,1.56,0,0,1,.55.08.85.85,0,0,1,.33.25,1.19,1.19,0,0,1,.25.46,2.75,2.75,0,0,1,.08.7,2.19,2.19,0,0,1-.09.66,1.4,1.4,0,0,1-.23.44.88.88,0,0,1-.34.24,1.31,1.31,0,0,1-.52.09h-1V66.13Zm.52.5v1.92h.39a1,1,0,0,0,.36,0,.43.43,0,0,0,.19-.13.67.67,0,0,0,.12-.28,3.21,3.21,0,0,0,0-1,.84.84,0,0,0-.15-.3.48.48,0,0,0-.25-.14,2.14,2.14,0,0,0-.42,0Zm2,1a1.93,1.93,0,0,1,.17-.86,1.13,1.13,0,0,1,.43-.5,1.23,1.23,0,0,1,.65-.17,1.18,1.18,0,0,1,.91.39,2,2,0,0,1,0,2.26,1.26,1.26,0,0,1-1.77,0,1.62,1.62,0,0,1-.37-1.13Zm.54,0a1.22,1.22,0,0,0,.2.75.64.64,0,0,0,.52.25.6.6,0,0,0,.5-.25,1.15,1.15,0,0,0,.21-.76,1.18,1.18,0,0,0-.2-.75.67.67,0,0,0-1,0,1.15,1.15,0,0,0-.2.76Zm2.24.51.51-.06c.06.37.24.56.56.56a.58.58,0,0,0,.37-.11.37.37,0,0,0,.14-.29.34.34,0,0,0,0-.17.4.4,0,0,0-.14-.11l-.47-.15a1.68,1.68,0,0,1-.49-.2.85.85,0,0,1-.24-.29.75.75,0,0,1-.1-.38.8.8,0,0,1,.12-.43.74.74,0,0,1,.32-.29,1.29,1.29,0,0,1,.51-.1,1,1,0,0,1,.71.23.88.88,0,0,1,.27.66l-.52,0a.41.41,0,0,0-.47-.42.56.56,0,0,0-.32.08.23.23,0,0,0,0,.4,1.17,1.17,0,0,0,.47.18,2,2,0,0,1,.57.23.7.7,0,0,1,.26.3.87.87,0,0,1,.1.44.88.88,0,0,1-.26.64,1,1,0,0,1-.78.26A1,1,0,0,1,132.24,68.1Z"/><path class="cls-1" d="M134.42,61.93a77.62,77.62,0,0,1-9.35,1.79,71.73,71.73,0,0,1-9.22.61q-13.81,0-21.25-6T87.17,41q0-12.64,8.22-19.69a25.2,25.2,0,0,1,3.76-2.66c5.42-4,16.33-4.7,23.19-4.26,5.57,3.24,11.45,6.29,11.22,12.37-2.8-.63-5.21-1.08-7.24-1.37a41.39,41.39,0,0,0-5.91-.48q-8.53,0-13.3,4.33t-4.77,12c0,3.82,1.15,6.78,3.42,8.89s5.47,3.18,9.56,3.18a19.86,19.86,0,0,0,2.58-.16,17.6,17.6,0,0,0,2.58-.52c.12-1.08.2-2.09.26-3s.09-1.86.09-2.7V45.59H114.9l.57-10.4h20.11q-.6,6.45-.92,12.07c-.2,3.76-.31,7-.31,9.77,0,1.07,0,2,0,2.71S134.4,61.2,134.42,61.93Z"/><path class="cls-1" d="M86.28,14.2a51.41,51.41,0,0,1,7.33.36,14.66,14.66,0,0,1,3.94,1.16,10.31,10.31,0,0,1,4.59,4.62,15.6,15.6,0,0,1,1.7,7.36q0,8-4.77,12.88T86.49,45.43c-.37,0-.81,0-1.31,0s-1.08-.1-1.72-.17l-3.4-9.61q4.44,0,6.61-1.52a5.28,5.28,0,0,0,2.16-4.63,5.09,5.09,0,0,0-1.58-4A6.35,6.35,0,0,0,82.83,24c-.73,0-3.51.1-5.19.29L75.79,64.38H61.33Q62.38,54.9,63,42.14t.84-27.94Z"/><path class="cls-1" d="M42.05,20.28c.23-.54.53-1.27.87-2.21s.8-2.2,1.37-3.86l17.52,0c.11.91.26,1.81.42,2.68a26.23,26.23,0,0,0,.66,2.61l12.9,44.82H61.36c-.07-.61-.16-1.28-.28-2s-.28-1.51-.47-2.41L58.2,48.61H42.44l-3.68,10c-.32.93-.63,1.89-.92,2.86s-.56,1.95-.8,2.9H31.71l-8.09-2.57L42.05,20.28Zm10.11.93-5.92,16h9.52Z"/><path class="cls-2" d="M16.32,47.9l0,0a14,14,0,0,1-1.65-1C10,43.25,13.24,36.53,41,32a122.74,122.74,0,0,1,30.65-.81c4.89.53,5.39,2.53,5.51,3.78,2.06-3.39,2.07-7.82-7.14-9.44-18.33-2.69-42.72.81-53.71,6.89-5.95,3.36-6.9,8.07-6.17,10.43A9.6,9.6,0,0,0,16.65,48Z"/><path class="cls-1" d="M13.5,45.71c1.78.72,6,1.72,7.35.66l1.71,3.12C19.53,49.58,14.46,47.54,13.5,45.71Z"/><path class="cls-2" d="M36.83,64.36C31.9,63,27.57,59,27.48,53.6a47.78,47.78,0,0,1,4.59-22.19C44.37,8.23,51.53,1.72,57.82.39l.3,0A8.8,8.8,0,0,1,59.23.21l.43.06a9,9,0,0,0-3-.25c-2.47.13-6.44,1.36-12.55,5.55-8.06,6.12-12.47,11.64-17.4,20.37-4.64,8.21-9.19,21.75-7.2,31.71C20.54,63.4,26,65,36.83,64.36Z"/><path class="cls-1" d="M57.81.4c6.81-1.9,3.07,11.08,2.28,15.82-4.47-.5-2.38-.07-5.43-.85C55.74,12.27,60.5,1.55,57.81.4Z"/><path class="cls-2" d="M133.56,26.74c3.24-8.24-4.89-12.8-19.5-14.93C87.85,8,46.11,8.06,14.73,19c-16,6-16.91,10.25-12.36,14.35a29.8,29.8,0,0,0,4.17,3c-1.31-1.64-1.75-2.26-1.83-3.53-.1-5.19,12-11.73,56.57-15.67C78.16,16.4,128.47,12.92,133.56,26.74Z"/></g></g></svg>